# xmcd
#
# Track frame offsets:
#	150
#	12565
#	51701
#	75270
#	101120
#	116087
#	142492
#	166833
#	185174
#	213323
#	254088
#
# Disc length: 3629 seconds
#
# Revision: 1
# Processed by: cddbd v1.5.2PL0 Copyright (c) Steve Scherf et al.
# Submitted via: audiograbber 1.83.01
#
DISCID=ac0e2b0b
DTITLE=Soo Cho Quartet -  Prayer
DYEAR=2008
DGENRE=Jazz
TTITLE0=Chicky Chicky
TTITLE1=Empty Carousel
TTITLE2=Prayer
TTITLE3=Suspicion
TTITLE4=Breeze
TTITLE5=Misty Cliffs
TTITLE6=Song For Both
TTITLE7=September Moon
TTITLE8=New Chapter
TTITLE9=Dreamer
TTITLE10=Waiting
EXTD=YEAR: 2008
EXTT0=
EXTT1=
EXTT2=
EXTT3=
EXTT4=
EXTT5=
EXTT6=
EXTT7=
EXTT8=
EXTT9=
EXTT10=
PLAYORDER=
